<?xml version="1.0" encoding="utf-8"?>
<!-- Generator: Adobe Illustrator 17.1.0, SVG Export Plug-In . SVG Version: 6.00 Build 0)  -->
<!DOCTYPE svg PUBLIC "-//W3C//DTD SVG 1.1//EN" "http://www.w3.org/Graphics/SVG/1.1/DTD/svg11.dtd">
<svg version="1.1" id="レイヤー_1" xmlns="http://www.w3.org/2000/svg" xmlns:xlink="http://www.w3.org/1999/xlink" x="0px"
	 y="0px" viewBox="0 0 505.1 125.9" enable-background="new 0 0 505.1 125.9" xml:space="preserve">
<g>
	<circle fill="none" stroke="#21B5C1" stroke-width="0.588" stroke-miterlimit="10" cx="62" cy="77.1" r="45"/>
	<circle fill="none" stroke="#21B5C1" stroke-width="0.588" stroke-miterlimit="10" cx="59.8" cy="59.8" r="59.5"/>
	<circle fill="none" stroke="#21B5C1" stroke-width="0.588" stroke-miterlimit="10" cx="62" cy="61" r="45"/>
	<circle fill="none" stroke="#21B5C1" stroke-width="0.588" stroke-miterlimit="10" cx="63.3" cy="63.4" r="62.2"/>
	<circle fill="none" stroke="#21B5C1" stroke-width="0.588" stroke-miterlimit="10" cx="78.4" cy="62.1" r="43.7"/>
	<circle fill="none" stroke="#21B5C1" stroke-width="0.588" stroke-miterlimit="10" cx="70.1" cy="64.5" r="53.8"/>
	<path fill="#231815" d="M312.3,17.1c-25.3,0-45.8,20.5-45.8,45.8s20.5,45.8,45.8,45.8c25.3,0,45.8-20.5,45.8-45.8
		S337.6,17.1,312.3,17.1z M312.3,94.5c-17.4,0-31.6-14.1-31.6-31.6c0-17.4,14.1-31.6,31.6-31.6c17.4,0,31.6,14.1,31.6,31.6
		C343.8,80.4,329.7,94.5,312.3,94.5z"/>
	<g>
		<g>
			<path fill="#231815" d="M150.4,21.6c-0.3-1.3,0.5-2.4,1.8-2.4h10.7c1.3,0,2.7,1.1,3,2.4l14.7,62.1c0.3,1.3,0.6,1.3,0.7,1.3
				s0.4,0.1,0.7-1.2l16.4-62.1c0.3-1.3,1.7-2.4,3.1-2.4h10.8c1.3,0,2.7,1.1,3.1,2.4l15.9,62.1c0.3,1.3,0.7,1.2,0.7,1.2
				s0.4,0.1,0.7-1.3l15.1-62.1c0.3-1.3,1.7-2.4,3-2.4h10.7c1.3,0,2.2,1.1,1.8,2.4l-22.8,82.7c-0.4,1.3-1.8,2.4-3.1,2.4h-10.7
				c-1.3,0-2.7-1.1-3.1-2.4l-16.3-62.1c-0.3-1.3-0.7-2.4-0.7-2.4s-0.4,1.1-0.8,2.4l-16.6,62.1c-0.3,1.3-1.7,2.4-3.1,2.4h-10.9
				c-1.3,0-2.7-1.1-3.1-2.4L150.4,21.6z"/>
		</g>
		<g>
			<path fill="#231815" d="M359,21.7c0-1.3,1.1-2.4,2.4-2.4h65.9c1.3,0,2.4,1.1,2.4,2.4V30c0,1.3-1.1,2.4-2.4,2.4h-22.9
				c-1.3,0-2.4,1.1-2.4,2.4v69.3c0,1.3-1.1,2.4-2.4,2.4h-10.4c-1.3,0-2.4-1.1-2.4-2.4V34.9c0-1.3-1.1-2.4-2.4-2.4h-22.8
				c-1.3,0-2.4-1.1-2.4-2.4V21.7z"/>
		</g>
		<g>
			<path fill="#231815" d="M455,21.5c0.5-1.3,2-2.3,3.3-2.3h11.4c1.3,0,2.8,1,3.3,2.3l31.9,82.9c0.5,1.3-0.2,2.3-1.6,2.3h-11.5
				c-1.3,0-2.8-1-3.3-2.3L482,85.8c-0.5-1.3-1.9-2.3-3.3-2.3h-30c-1.3,0-2.8,1-3.3,2.3l-6.6,18.5c-0.5,1.3-1.9,2.3-3.3,2.3h-10.9
				c-1.3,0-2.1-1-1.6-2.3L455,21.5z M451.3,69.6c-0.4,1.3,0.3,2.3,1.6,2.3h21.8c1.3,0,2.1-1,1.6-2.3l-11.5-33
				c-0.4-1.3-0.9-1.2-1-1.2s-0.5-0.1-1,1.2L451.3,69.6z"/>
		</g>
	</g>
</g>
</svg>
