<?xml version="1.0" encoding="utf-8"?>
<!-- Generator: Adobe Illustrator 17.1.0, SVG Export Plug-In . SVG Version: 6.00 Build 0)  -->
<!DOCTYPE svg PUBLIC "-//W3C//DTD SVG 1.1//EN" "http://www.w3.org/Graphics/SVG/1.1/DTD/svg11.dtd">
<svg version="1.1" id="レイヤー_1" xmlns="http://www.w3.org/2000/svg" xmlns:xlink="http://www.w3.org/1999/xlink" x="0px"
	 y="0px" viewBox="0 0 354.9 365.7" enable-background="new 0 0 354.9 365.7" xml:space="preserve">
<g>
	<circle fill="none" stroke="#FFFFFF" stroke-miterlimit="10" cx="177.9" cy="131" r="76.5"/>
	<circle fill="none" stroke="#FFFFFF" stroke-miterlimit="10" cx="174.2" cy="101.7" r="101.2"/>
	<circle fill="none" stroke="#FFFFFF" stroke-miterlimit="10" cx="177.9" cy="103.7" r="76.5"/>
	<circle fill="none" stroke="#FFFFFF" stroke-miterlimit="10" cx="180.1" cy="107.8" r="105.7"/>
	<circle fill="none" stroke="#FFFFFF" stroke-miterlimit="10" cx="205.8" cy="105.7" r="74.3"/>
	<circle fill="none" stroke="#FFFFFF" stroke-miterlimit="10" cx="191.6" cy="109.7" r="91.5"/>
	<g>
		<path fill="#FFFFFF" d="M162,239c-25.3,0-45.8,20.5-45.8,45.8s20.5,45.8,45.8,45.8s45.8-20.5,45.8-45.8S187.3,239,162,239z
			 M162,316.4c-17.4,0-31.6-14.1-31.6-31.6c0-17.4,14.1-31.6,31.6-31.6s31.6,14.1,31.6,31.6C193.6,302.3,179.4,316.4,162,316.4z"/>
		<g>
			<g>
				<path fill="#FFFFFF" d="M0.1,243.4c-0.3-1.3,0.5-2.4,1.8-2.4h10.7c1.3,0,2.7,1.1,3,2.4l14.7,62.1c0.3,1.3,0.6,1.3,0.7,1.3
					c0.1,0,0.4,0.1,0.7-1.2l16.4-62.2c0.3-1.3,1.7-2.4,3.1-2.4h10.8c1.3,0,2.7,1.1,3.1,2.4l15.9,62.1c0.3,1.3,0.7,1.2,0.7,1.2
					c0.1,0,0.4,0.1,0.7-1.3l15.1-62.1c0.3-1.3,1.7-2.4,3-2.4h10.7c1.3,0,2.2,1.1,1.8,2.4l-22.8,82.7c-0.4,1.3-1.8,2.4-3.1,2.4H76.4
					c-1.3,0-2.7-1.1-3.1-2.4L57,264c-0.3-1.3-0.7-2.4-0.7-2.4s-0.4,1.1-0.8,2.4l-16.6,62.2c-0.3,1.3-1.7,2.4-3.1,2.4H24.9
					c-1.3,0-2.7-1.1-3.1-2.4L0.1,243.4z"/>
			</g>
			<g>
				<path fill="#FFFFFF" d="M208.7,243.5c0-1.3,1.1-2.5,2.5-2.5h65.9c1.3,0,2.5,1.1,2.5,2.5v8.3c0,1.3-1.1,2.5-2.5,2.5h-22.9
					c-1.3,0-2.5,1.1-2.5,2.5v69.3c0,1.3-1.1,2.5-2.5,2.5h-10.4c-1.3,0-2.5-1.1-2.5-2.5v-69.3c0-1.3-1.1-2.5-2.5-2.5h-22.8
					c-1.3,0-2.5-1.1-2.5-2.5V243.5z"/>
			</g>
			<g>
				<path fill="#FFFFFF" d="M304.8,243.4c0.5-1.3,2-2.3,3.3-2.3h11.4c1.3,0,2.8,1,3.3,2.3l31.9,82.9c0.5,1.3-0.2,2.3-1.6,2.3h-11.5
					c-1.3,0-2.8-1-3.3-2.3l-6.6-18.5c-0.5-1.3-1.9-2.3-3.3-2.3h-30c-1.3,0-2.8,1-3.3,2.3l-6.6,18.5c-0.5,1.3-1.9,2.3-3.3,2.3h-10.9
					c-1.3,0-2.1-1-1.6-2.3L304.8,243.4z M301.1,291.4c-0.4,1.3,0.3,2.3,1.6,2.3h21.8c1.3,0,2.1-1,1.6-2.3l-11.5-33
					c-0.4-1.3-0.9-1.2-1-1.2c-0.1,0-0.5-0.1-1,1.2L301.1,291.4z"/>
			</g>
		</g>
		<g>
			<path fill="#FFFFFF" d="M21.6,349.7h-2.7c-0.1,0-0.2,0.1-0.2,0.2l-2.6,10.7l-2.7-10.7c0-0.1-0.1-0.2-0.2-0.2h-2.7
				c-0.1,0-0.2,0.1-0.2,0.2l-2.8,10.7l-2.5-10.7c0-0.1-0.1-0.2-0.2-0.2H1.8c-0.1,0-0.2,0-0.2,0.1c0,0.1-0.1,0.1,0,0.2l4,15.1
				c0,0.1,0.1,0.2,0.2,0.2h2.7c0.1,0,0.2-0.1,0.2-0.2l2.9-10.8l2.8,10.7c0,0.1,0.1,0.2,0.2,0.2h2.7c0.1,0,0.2-0.1,0.2-0.2l4.2-15.1
				c0-0.1,0-0.2,0-0.2C21.7,349.7,21.7,349.7,21.6,349.7z"/>
			<path fill="#FFFFFF" d="M35.4,349.7h-2.8c-0.1,0-0.2,0.1-0.2,0.2L26.6,365c0,0.1,0,0.2,0,0.2c0,0.1,0.1,0.1,0.2,0.1h2.7
				c0.1,0,0.2-0.1,0.2-0.2l1.4-3.8h5.7l1.4,3.8c0,0.1,0.1,0.2,0.2,0.2h2.8c0.1,0,0.2,0,0.2-0.1s0.1-0.2,0-0.2l-5.8-15.1
				C35.6,349.7,35.5,349.7,35.4,349.7z M36,358.8H32l2-5.6L36,358.8z"/>
			<path fill="#FFFFFF" d="M59.3,349.7H47c-0.1,0-0.3,0.1-0.3,0.3v2.3c0,0.1,0.1,0.3,0.3,0.3h4.5v12.6c0,0.1,0.1,0.3,0.3,0.3h2.7
				c0.1,0,0.3-0.1,0.3-0.3v-12.6h4.6c0.1,0,0.3-0.1,0.3-0.3v-2.3C59.5,349.8,59.4,349.7,59.3,349.7z"/>
			<path fill="#FFFFFF" d="M77.8,362.5h-8.2v-3.9H77c0.1,0,0.3-0.1,0.3-0.3v-2.2c0-0.1-0.1-0.3-0.3-0.3h-7.4v-3.5h8
				c0.1,0,0.3-0.1,0.3-0.3v-2.3c0-0.1-0.1-0.3-0.3-0.3H66.8c-0.1,0-0.3,0.1-0.3,0.3v15.1c0,0.1,0.1,0.3,0.3,0.3h11.1
				c0.1,0,0.3-0.1,0.3-0.3v-2.3C78.1,362.6,77.9,362.5,77.8,362.5z"/>
			<path fill="#FFFFFF" d="M98.3,363.4c-0.1-0.7-0.2-1.5-0.2-2.4c0-0.6-0.1-1.2-0.2-1.6s-0.4-0.8-0.6-1c-0.2-0.3-0.5-0.5-0.8-0.6
				c0,0-0.1,0-0.1-0.1l0,0c0.3-0.1,0.6-0.4,0.9-0.7c0.3-0.3,0.6-0.7,0.8-1.2c0.2-0.5,0.3-1.1,0.3-1.9c0-1.4-0.5-2.4-1.3-3.2
				c-0.9-0.8-2.2-1.1-3.9-1.1h-7.2c-0.1,0-0.3,0.1-0.3,0.3v15.1c0,0.1,0.1,0.3,0.3,0.3h2.7c0.1,0,0.3-0.1,0.3-0.3v-6h3.7
				c0.6,0,1,0.1,1.4,0.2c0.3,0.1,0.6,0.4,0.8,0.6c0.2,0.3,0.3,0.7,0.4,1.2c0.1,0.5,0.1,1.1,0.1,1.8c0,0.4,0,0.8,0.1,1.2
				c0,0.4,0.2,0.8,0.4,1.2c0,0.1,0.1,0.1,0.2,0.1h2.8c0.1,0,0.2-0.1,0.2-0.1c0-0.1,0-0.2,0-0.3C98.6,364.6,98.4,364.1,98.3,363.4z
				 M88.7,352.3h4.1c0.3,0,0.6,0,0.9,0.1c0.3,0,0.5,0.2,0.7,0.3c0.2,0.1,0.4,0.3,0.5,0.6c0.1,0.3,0.2,0.6,0.2,1.1
				c0,0.7-0.2,1.3-0.6,1.6c-0.4,0.4-1,0.5-1.8,0.5h-4.1V352.3z"/>
			<path fill="#FFFFFF" d="M133.8,349.7h-3.7c-0.1,0-0.2,0.1-0.2,0.2l-3.9,11.2l-4-11.2c0-0.1-0.1-0.2-0.2-0.2h-3.7
				c-0.1,0-0.3,0.1-0.3,0.3v15.1c0,0.1,0.1,0.3,0.3,0.3h2.5c0.1,0,0.3-0.1,0.3-0.3v-10.4l3.8,10.5c0,0.1,0.1,0.2,0.2,0.2h2.2
				c0.1,0,0.2-0.1,0.2-0.2l3.8-10.5v10.4c0,0.1,0.1,0.3,0.3,0.3h2.5c0.1,0,0.3-0.1,0.3-0.3v-15.1C134.1,349.8,134,349.7,133.8,349.7
				z"/>
			<path fill="#FFFFFF" d="M149.1,349.7h-2.8c-0.1,0-0.2,0.1-0.2,0.2l-5.8,15.1c0,0.1,0,0.2,0,0.2c0,0.1,0.1,0.1,0.2,0.1h2.7
				c0.1,0,0.2-0.1,0.2-0.2l1.4-3.8h5.7l1.4,3.8c0,0.1,0.1,0.2,0.2,0.2h2.8c0.1,0,0.2,0,0.2-0.1s0.1-0.2,0-0.2l-5.8-15.1
				C149.3,349.7,149.2,349.7,149.1,349.7z M149.6,358.8h-3.9l2-5.6L149.6,358.8z"/>
			<path fill="#FFFFFF" d="M169,356l5.9-5.9c0.1-0.1,0.1-0.2,0.1-0.3c0-0.1-0.1-0.2-0.2-0.2h-3.3c-0.1,0-0.1,0-0.2,0.1l-6.3,6.5
				v-6.3c0-0.1-0.1-0.3-0.3-0.3h-2.7c-0.1,0-0.3,0.1-0.3,0.3v15.1c0,0.1,0.1,0.3,0.3,0.3h2.7c0.1,0,0.3-0.1,0.3-0.3v-5l1.9-1.9
				l4.8,7c0,0.1,0.1,0.1,0.2,0.1h3.3c0.1,0,0.2-0.1,0.2-0.1c0-0.1,0-0.2,0-0.3L169,356z"/>
			<path fill="#FFFFFF" d="M192.9,362.5h-8.2v-3.9h7.4c0.1,0,0.3-0.1,0.3-0.3v-2.2c0-0.1-0.1-0.3-0.3-0.3h-7.4v-3.5h8
				c0.1,0,0.3-0.1,0.3-0.3v-2.3c0-0.1-0.1-0.3-0.3-0.3h-10.9c-0.1,0-0.3,0.1-0.3,0.3v15.1c0,0.1,0.1,0.3,0.3,0.3h11.1
				c0.1,0,0.3-0.1,0.3-0.3v-2.3C193.2,362.6,193.1,362.5,192.9,362.5z"/>
			<path fill="#FFFFFF" d="M211.9,358.2c-0.3-0.4-0.6-0.7-1-1c-0.4-0.3-0.8-0.5-1.4-0.7c-0.2-0.1-0.5-0.1-1-0.3l-1.4-0.4
				c-0.5-0.1-0.9-0.2-1.3-0.3l-0.7-0.2c-0.5-0.1-0.9-0.4-1.2-0.6c-0.3-0.3-0.4-0.6-0.4-1.1c0-0.3,0.1-0.6,0.2-0.8
				c0.2-0.2,0.3-0.4,0.6-0.5c0.2-0.1,0.5-0.2,0.8-0.3c0.3-0.1,0.6-0.1,0.9-0.1c0.9,0,1.6,0.2,2.1,0.6c0.5,0.4,0.8,1,0.9,1.9
				c0,0.1,0.1,0.2,0.3,0.2h2.7c0.1,0,0.3-0.1,0.3-0.3c0-0.8-0.2-1.6-0.5-2.2c-0.3-0.6-0.8-1.2-1.3-1.6c-0.6-0.4-1.2-0.8-1.9-1
				c-1.3-0.4-2.9-0.4-4.4,0c-0.7,0.2-1.3,0.5-1.9,0.9c-0.6,0.4-1,0.9-1.3,1.5c-0.3,0.6-0.5,1.3-0.5,2.1c0,0.4,0.1,0.8,0.2,1.2
				c0.1,0.4,0.3,0.8,0.6,1.2c0.3,0.4,0.6,0.7,1.1,1c0.5,0.3,1,0.5,1.7,0.7c1,0.3,1.9,0.5,2.6,0.7c0.7,0.2,1.3,0.4,1.9,0.6
				c0.3,0.1,0.5,0.3,0.8,0.5c0.2,0.2,0.3,0.6,0.3,1.1c0,0.2-0.1,0.5-0.2,0.7c-0.1,0.2-0.3,0.5-0.5,0.6c-0.2,0.2-0.5,0.4-0.9,0.5
				c-0.4,0.1-0.9,0.2-1.4,0.2c-0.5,0-1-0.1-1.4-0.2c-0.4-0.1-0.8-0.3-1.1-0.5c-0.3-0.2-0.6-0.5-0.7-0.9c-0.2-0.4-0.3-0.8-0.3-1.4
				c0-0.1-0.1-0.3-0.3-0.3H200c-0.1,0-0.1,0-0.2,0.1c0,0-0.1,0.1-0.1,0.2c0,1,0.2,1.8,0.6,2.5c0.4,0.7,0.8,1.3,1.4,1.8
				c0.6,0.5,1.3,0.8,2.1,1c0.8,0.2,1.6,0.3,2.5,0.3c0.8,0,1.5-0.1,2.3-0.3c0.7-0.2,1.4-0.5,2-0.9c0.6-0.4,1.1-0.9,1.4-1.6
				c0.4-0.6,0.6-1.4,0.6-2.3c0-0.4-0.1-0.8-0.2-1.3C212.3,359,212.1,358.6,211.9,358.2z"/>
			<path fill="#FFFFFF" d="M244.3,349.7h-2.7c-0.1,0-0.3,0.1-0.3,0.3v8.8c0,0.5,0,1-0.1,1.5c0,0.5-0.2,0.9-0.4,1.3
				c-0.2,0.4-0.5,0.7-1,0.9c-0.4,0.2-1.1,0.4-1.9,0.4s-1.4-0.1-1.9-0.4c-0.4-0.2-0.8-0.6-1-0.9c-0.2-0.4-0.3-0.8-0.4-1.3
				c0-0.5-0.1-1-0.1-1.5v-8.8c0-0.1-0.1-0.3-0.3-0.3h-2.7c-0.1,0-0.3,0.1-0.3,0.3v9.7c0,1,0.2,1.9,0.5,2.6c0.3,0.8,0.8,1.4,1.3,1.9
				c0.6,0.5,1.3,0.9,2.1,1.1c0.8,0.2,1.7,0.4,2.6,0.4s1.8-0.1,2.6-0.4c0.8-0.3,1.5-0.6,2.1-1.1c0.6-0.5,1-1.2,1.3-1.9
				c0.3-0.7,0.5-1.6,0.5-2.6v-9.7C244.6,349.8,244.5,349.7,244.3,349.7z"/>
			<path fill="#FFFFFF" d="M264,358.2c-0.3-0.4-0.6-0.7-1-1c-0.4-0.3-0.8-0.5-1.4-0.7c-0.2-0.1-0.5-0.1-1-0.3l-1.4-0.4
				c-0.5-0.1-0.9-0.2-1.3-0.3l-0.7-0.2c-0.5-0.1-0.9-0.4-1.2-0.6c-0.3-0.3-0.4-0.6-0.4-1.1c0-0.3,0.1-0.6,0.2-0.8
				c0.2-0.2,0.3-0.4,0.6-0.5c0.2-0.1,0.5-0.2,0.8-0.3c0.3-0.1,0.6-0.1,0.9-0.1c0.9,0,1.6,0.2,2.1,0.6c0.5,0.4,0.8,1,0.9,1.9
				c0,0.1,0.1,0.2,0.3,0.2h2.7c0.1,0,0.3-0.1,0.3-0.3c0-0.8-0.2-1.6-0.5-2.2c-0.3-0.6-0.8-1.2-1.3-1.6c-0.6-0.4-1.2-0.8-1.9-1
				c-1.3-0.4-2.9-0.4-4.4,0c-0.7,0.2-1.3,0.5-1.9,0.9c-0.6,0.4-1,0.9-1.3,1.5c-0.3,0.6-0.5,1.3-0.5,2.1c0,0.4,0.1,0.8,0.2,1.2
				c0.1,0.4,0.3,0.8,0.6,1.2c0.3,0.4,0.6,0.7,1.1,1c0.5,0.3,1,0.5,1.7,0.7c1,0.3,1.9,0.5,2.6,0.7c0.7,0.2,1.3,0.4,1.9,0.6
				c0.3,0.1,0.5,0.3,0.8,0.5c0.2,0.2,0.3,0.6,0.3,1.1c0,0.2-0.1,0.5-0.2,0.7c-0.1,0.2-0.3,0.5-0.5,0.6c-0.2,0.2-0.5,0.4-0.9,0.5
				c-0.4,0.1-0.9,0.2-1.4,0.2c-0.5,0-1-0.1-1.4-0.2c-0.4-0.1-0.8-0.3-1.1-0.5c-0.3-0.2-0.6-0.5-0.7-0.9c-0.2-0.4-0.3-0.8-0.3-1.4
				c0-0.1-0.1-0.3-0.3-0.3h-2.7c-0.1,0-0.1,0-0.2,0.1c0,0-0.1,0.1-0.1,0.2c0,1,0.2,1.8,0.6,2.5c0.4,0.7,0.8,1.3,1.4,1.8
				c0.6,0.5,1.3,0.8,2.1,1c0.8,0.2,1.6,0.3,2.5,0.3c0.8,0,1.5-0.1,2.3-0.3c0.7-0.2,1.4-0.5,2-0.9c0.6-0.4,1.1-0.9,1.4-1.6
				c0.4-0.6,0.6-1.4,0.6-2.3c0-0.4-0.1-0.8-0.2-1.3C264.5,359,264.3,358.6,264,358.2z"/>
			<path fill="#FFFFFF" d="M294.7,349.7h-10.5c-0.1,0-0.3,0.1-0.3,0.3v15.1c0,0.1,0.1,0.3,0.3,0.3h2.7c0.1,0,0.3-0.1,0.3-0.3v-6.5
				h6.6c0.1,0,0.3-0.1,0.3-0.3v-2.2c0-0.1-0.1-0.3-0.3-0.3h-6.6v-3.5h7.6c0.1,0,0.3-0.1,0.3-0.3v-2.3
				C294.9,349.8,294.8,349.7,294.7,349.7z"/>
			<path fill="#FFFFFF" d="M314.4,363.4c-0.1-0.7-0.2-1.5-0.2-2.4c0-0.6-0.1-1.2-0.2-1.6s-0.4-0.8-0.6-1c-0.2-0.3-0.5-0.5-0.8-0.6
				c0,0-0.1,0-0.1-0.1l0,0c0.3-0.1,0.6-0.4,0.9-0.7c0.3-0.3,0.6-0.7,0.8-1.2c0.2-0.5,0.3-1.1,0.3-1.9c0-1.4-0.5-2.4-1.3-3.2
				c-0.9-0.8-2.2-1.1-3.9-1.1H302c-0.1,0-0.3,0.1-0.3,0.3v15.1c0,0.1,0.1,0.3,0.3,0.3h2.7c0.1,0,0.3-0.1,0.3-0.3v-6h3.7
				c0.6,0,1,0.1,1.4,0.2c0.3,0.1,0.6,0.4,0.8,0.6c0.2,0.3,0.3,0.7,0.4,1.2c0.1,0.5,0.1,1.1,0.1,1.8c0,0.4,0,0.8,0.1,1.2
				c0,0.4,0.2,0.8,0.4,1.2c0,0.1,0.1,0.1,0.2,0.1h2.8c0.1,0,0.2-0.1,0.2-0.1c0-0.1,0-0.2,0-0.3C314.8,364.6,314.6,364.1,314.4,363.4
				z M304.9,352.3h4.1c0.3,0,0.6,0,0.9,0.1c0.3,0,0.5,0.2,0.7,0.3c0.2,0.1,0.4,0.3,0.5,0.6c0.1,0.3,0.2,0.6,0.2,1.1
				c0,0.7-0.2,1.3-0.6,1.6c-0.4,0.4-1,0.5-1.8,0.5h-4.1V352.3z"/>
			<path fill="#FFFFFF" d="M333.7,362.5h-8.2v-3.9h7.4c0.1,0,0.3-0.1,0.3-0.3v-2.2c0-0.1-0.1-0.3-0.3-0.3h-7.4v-3.5h8
				c0.1,0,0.3-0.1,0.3-0.3v-2.3c0-0.1-0.1-0.3-0.3-0.3h-10.9c-0.1,0-0.3,0.1-0.3,0.3v15.1c0,0.1,0.1,0.3,0.3,0.3h11.1
				c0.1,0,0.3-0.1,0.3-0.3v-2.3C334,362.6,333.9,362.5,333.7,362.5z"/>
			<path fill="#FFFFFF" d="M352.8,362.5h-8.2v-3.9h7.4c0.1,0,0.3-0.1,0.3-0.3v-2.2c0-0.1-0.1-0.3-0.3-0.3h-7.4v-3.5h8
				c0.1,0,0.3-0.1,0.3-0.3v-2.3c0-0.1-0.1-0.3-0.3-0.3h-10.9c-0.1,0-0.3,0.1-0.3,0.3v15.1c0,0.1,0.1,0.3,0.3,0.3h11.1
				c0.1,0,0.3-0.1,0.3-0.3v-2.3C353.1,362.6,353,362.5,352.8,362.5z"/>
		</g>
	</g>
</g>
</svg>
