<?xml version="1.0" encoding="utf-8"?>
<!-- Generator: Adobe Illustrator 17.1.0, SVG Export Plug-In . SVG Version: 6.00 Build 0)  -->
<!DOCTYPE svg PUBLIC "-//W3C//DTD SVG 1.1//EN" "http://www.w3.org/Graphics/SVG/1.1/DTD/svg11.dtd">
<svg version="1.1" id="レイヤー_1" xmlns="http://www.w3.org/2000/svg" xmlns:xlink="http://www.w3.org/1999/xlink" x="0px"
	 y="0px" viewBox="0 0 500 500" enable-background="new 0 0 500 500" xml:space="preserve">
<path fill="#FFFFFF" d="M403.4,0H96.6C43.3,0,0,43.3,0,96.6v102.1v204.7C0,456.7,43.3,500,96.6,500h306.8
	c53.3,0,96.6-43.3,96.6-96.6V198.7V96.6C500,43.3,456.7,0,403.4,0z M431.1,57.6l11.1,0v11v73.7l-84.5,0.3l-0.3-84.7L431.1,57.6z
	 M178.6,198.7c16-22.2,42-36.7,71.4-36.7s55.4,14.5,71.3,36.7c10.4,14.5,16.7,32.2,16.7,51.3c0,48.5-39.5,88-88,88
	c-48.5,0-88-39.5-88-88C162,230.8,168.2,213.1,178.6,198.7z M451.3,403.4c0,26.4-21.5,47.9-47.9,47.9H96.6
	c-26.4,0-47.9-21.5-47.9-47.9V198.7h74.6c-6.4,15.9-10.1,33.2-10.1,51.3c0,75.4,61.3,136.7,136.7,136.7
	c75.4,0,136.7-61.4,136.7-136.7c0-18.1-3.6-35.5-10.1-51.3h74.7V403.4z"/>
</svg>
