<?xml version="1.0" encoding="utf-8"?>
<!-- Generator: Adobe Illustrator 17.1.0, SVG Export Plug-In . SVG Version: 6.00 Build 0)  -->
<!DOCTYPE svg PUBLIC "-//W3C//DTD SVG 1.1//EN" "http://www.w3.org/Graphics/SVG/1.1/DTD/svg11.dtd">
<svg version="1.1" id="レイヤー_1" xmlns="http://www.w3.org/2000/svg" xmlns:xlink="http://www.w3.org/1999/xlink" x="0px"
	 y="0px" viewBox="0 0 841.9 595.3" enable-background="new 0 0 841.9 595.3" xml:space="preserve">
<path fill="#2B2B2B" d="M603.6,0H238.3c-63.5,0-115,51.6-115,115v121.6v243.7c0,63.5,51.6,115,115,115h365.3
	c63.5,0,115-51.6,115-115V236.6V115C718.6,51.6,667,0,603.6,0z M636.6,68.6h13.2v13.1v87.7l-100.6,0.4l-0.4-100.8L636.6,68.6z
	 M335.9,236.6c19-26.4,50-43.7,85-43.7s66,17.3,84.9,43.7c12.4,17.3,19.9,38.3,19.9,61.1c0,57.7-47,104.8-104.8,104.8
	s-104.8-47-104.8-104.8C316.2,274.8,323.6,253.7,335.9,236.6z M660.6,480.3c0,31.4-25.6,57-57,57H238.3c-31.4,0-57-25.6-57-57V236.6
	h88.8c-7.6,18.9-12,39.5-12,61.1c0,89.8,73,162.7,162.7,162.7s162.7-73.1,162.7-162.7c0-21.5-4.3-42.3-12-61.1h88.9v243.7H660.6z"/>
</svg>
