<?xml version="1.0" encoding="utf-8"?>
<!-- Generator: Adobe Illustrator 17.1.0, SVG Export Plug-In . SVG Version: 6.00 Build 0)  -->
<!DOCTYPE svg PUBLIC "-//W3C//DTD SVG 1.1//EN" "http://www.w3.org/Graphics/SVG/1.1/DTD/svg11.dtd">
<svg version="1.1" id="レイヤー_1" xmlns="http://www.w3.org/2000/svg" xmlns:xlink="http://www.w3.org/1999/xlink" x="0px"
	 y="0px" viewBox="234.9 146.5 372.1 302.3" enable-background="new 234.9 146.5 372.1 302.3" xml:space="preserve">
<title>Twitter_Logo_White-on-Blue</title>
<g id="Logo_FIXED">
	<path fill="#2B2B2B" d="M351.9,448.8c140.4,0,217.2-116.3,217.2-217.2c0-3.3,0-6.6-0.2-9.9c14.9-10.8,27.8-24.2,38.1-39.5
		c-13.9,6.2-28.7,10.2-43.8,12c15.9-9.5,27.9-24.5,33.6-42.2c-15,8.9-31.4,15.2-48.5,18.5c-28.9-30.7-77.3-32.2-108-3.3
		c-19.8,18.6-28.2,46.4-22.1,72.9c-61.4-3.1-118.6-32.1-157.3-79.8c-20.3,34.9-9.9,79.5,23.6,101.9c-12.1-0.4-24-3.6-34.6-9.6
		c0,0.3,0,0.6,0,1c0,36.3,25.6,67.6,61.2,74.8c-11.2,3.1-23,3.5-34.5,1.3c10,31.1,38.7,52.4,71.3,53c-27,21.2-60.4,32.8-94.8,32.7
		c-6.1,0-12.1-0.4-18.2-1.1C269.8,436.9,310.4,448.8,351.9,448.8"/>
</g>
</svg>
